<svg xmlns="http://www.w3.org/2000/svg" xml:space="preserve" width="302.4" height="273.4" viewBox="0 0 80 72.3"><defs><radialGradient id="a" cx="50%" cy="50%" r="50%" fx="50%" fy="50%"><stop offset="0%" stop-color="#fbde02"/><stop offset="100%" stop-color="#b2180a"/></radialGradient></defs><path d="M112 168.4c.1-5.8 0-6.5-.5-7.6-.4-.7-1-1.4-1.3-1.6-.3-.2-.9-.2-1.5 0s-1.4 1-1.9 1.7c-.6 1-1 1.2-1 .8a9.2 9.2 0 0 1 2.2-5.1c.5-.5 1.4-.9 2-1 .8-.1 1.6 0 2.4.5.7.4 1.6 1.2 1.9 1.9.4.7.6 2 .6 3.5l.2 4.6c.3 2.3.3 2.4 1.1 2.4.5 0 1.5-.3 2.2-.7.8-.4 2-1.5 2.6-2.4a13 13 0 0 0 1.6-2.8c.2-.7.4-2.1.4-3.3 0-1.4-.1-2.1-.6-2.5-.3-.3-1-.7-1.4-.8-.5-.1-1 0-1.5.5-.4.4-.7 1.2-.7 1.8 0 .7.2 1 .7 1.2.4.2 1 0 1.3-.2.2-.2.6-.3.7-.2.1.1 0 .6-.2 1.1-.3.5-.9 1-1.4 1.1a3 3 0 0 1-1.6-.1c-.6-.3-1-1-1.3-1.8-.3-1.3-.2-1.7.3-3 .5-1 1.2-1.9 2-2.3.6-.4 1.7-.8 2.4-.8s1.7.2 2.2.4c.4.2 1.1 1.1 1.6 2 .4.8.8 2.1 1 3 0 1.2 0 2.3-.6 4a20 20 0 0 1-2 4 35.6 35.6 0 0 1-9 7.1c-1 .6-2.3 1-2.5 1-.5 0-.5-.9-.4-6.4zM103 171a82.6 82.6 0 0 1-18-16.1c-.9-1.2-1.6-2.3-1.4-2.4 0-.1.7.3 1.4 1 .7.6 1.4 1 1.7.9.4-.1.6-1 .8-3.3.1-1.7.2-5.3 0-8 0-3.5-.3-5.4-.7-6.3-.4-1-1-1.5-2-2l-1.6-.7h3.3c2.6 0 3.3 0 4 .6l.9.7v8.8c0 5.4.2 9.4.4 10.4l1.4 3.7c.5 1 1.5 2.6 2.3 3.5.8.9 2.4 2.2 3.6 3 1.8 1.2 2.3 1.3 4.3 1.3 2.1 0 2.2 0 3.5-1.5.8-.8 1.6-1.8 1.8-2.2.2-.4.5-.5.7-.4.1.2.3 2.5.4 5.3.1 4.4 0 5.1-.4 5.7-.4.3-1 .6-1.6.6-.5 0-2.5-1-4.8-2.6zm24-5.5 1-2.4a8 8 0 0 0 .4-4.5c-.2-2.6-.4-3-2.3-5.8a22.3 22.3 0 0 1-2.5-4.4c-.3-1-.3-1.5.2-2.2a4 4 0 0 1 1.8-1.2c1-.4 3.1-.4 8-.2 3.7.1 7.1.4 7.7.6.5.2 1 .6 1.2.9.1.3-.2 1.4-.7 2.3l-1.4 2.5c-.2.3-.5.5-.7.3l-.2-1.3c0-.8-.3-1.4-1-2-.7-.8-1.5-1.1-3-1.3l-3.6-.2a8 8 0 0 0-2.9.6c-.6.3-1.1.8-1.2 1.1-.2.3.2.9.8 1.4.7.6 1.5 1 2.4 1 .7 0 1.8-.2 2.5-.4.8-.3 1-.2 1 0-.1.3-1 1.2-2.2 2-1.4 1.1-2 1.8-2 2.4 0 .4.3 1 .6 1.2.3.3 1 .5 1.7.5s1.6-.3 2-.6c.6-.3 1.3-1.1 1.6-1.7.3-.7.6-1.9.6-2.7 0-.8 0-1.5.2-1.5s.5.4.7 1c.2.4.4 1.5.4 2.2 0 1-.3 1.9-.8 2.6a90.3 90.3 0 0 1-10.2 10.4c-.2 0-.2-.2-.1-.6zm-28.3-4.3c-.6-.4-1.7-1.4-2.4-2.4a10.6 10.6 0 0 1-2.2-7.5c0-1.6.3-2.6 1-3.6a5 5 0 0 1 2.3-1.9c1-.3 1.9-.5 2.5-.3.5.1 1.7 1 2.6 2 1 1 1.9 2.2 2.1 3.2a20 20 0 0 1 0 8.1c-.3.9-1 1.7-1.7 2.2a5 5 0 0 1-2.2 1c-.5 0-1.4-.4-2-.8zm2.8-3.4c.5-.4.6-1.1.6-2.7 0-1.5-.2-2.6-.6-3.4a5 5 0 0 0-1.6-1.8c-1-.5-1-.5-1.9.5-.6.7-.8 1.4-.8 2.6 0 1 .3 2.3.7 3.1a5 5 0 0 0 1.3 1.9c.3.2.8.4 1.1.4.3 0 .8-.3 1.2-.6zm11.2-3.5c-.2-.3-.3-.5-.1-.5.1 0 .7-.4 1.3-1 1-.8 1-1 .8-3a8.3 8.3 0 0 0-.7-2.9l-.6-1c0-.2.4-.2 1 0 .5 0 1.9-.2 3-.5a8 8 0 0 1 2.8-.5c.3 0 .7.3 1 .6l.5 1.2-.1 1.4c-.3.4-.5.4-1.3-.2-.6-.5-1.3-.8-1.8-.8-.4 0-1 .2-1.2.5-.2.3-.4.8-.3 1.2 0 .4.5.6 1.5.8 1.3.1 1.4.2.8.8-.4.3-1 .6-1.3.6-.5 0-.7.2-.7 1 0 .5-.3 1.4-.7 2-.6.6-1 .9-2.1.9-.8 0-1.6-.3-1.8-.6zm-4.3-1.4a5.2 5.2 0 0 1-1.7-2 7 7 0 0 1-.7-2.6c0-.7.2-1.6.4-2 .2-.4.6-1 .8-1a4.3 4.3 0 0 1 3.9.4c.5.4 1.2 1.2 1.5 1.8.3.8.5 1.6.3 2.7 0 1.2-.4 1.9-1 2.4s-1.4.8-1.8.8c-.4 0-1.2-.2-1.7-.5zm2.5-2.3c.3-.5.3-1 0-2-.2-.6-.7-1.3-1-1.5-.6-.3-1-.3-1.3 0-.3.2-.5 1-.5 1.5 0 .7.3 1.5.6 2 .3.4.8.7 1.2.7.4 0 .8-.3 1-.7zM83 149a6.8 6.8 0 0 1-2.4-2.6 20 20 0 0 1-2.2-7.8c0-1.6.2-2.3.7-2.9.3-.4 1-.7 1.6-.7.5 0 1.4.3 2 .8a10 10 0 0 1 1.7 2c.5.8.9 1.8.9 2.3v.9l-.7-.7c-.4-.4-1-.7-1.3-.6-.4 0-.7.5-.9 1-.1.5 0 1.7.1 2.5.2.8.7 1.8 1 2.2a4 4 0 0 0 1.8.9c.7 0 1.2.3 1.1.4v1.7c0 1.3-.1 1.4-1 1.4a6 6 0 0 1-2.4-.8zm9.8-5.7c.2-1.1.6-2.8 1.1-3.7.5-1 1-2.4 1-3.2 0-.7-.3-1.8-.5-2.3a4 4 0 0 0-1.5-1.5c-.9-.5-2.2-.6-7.4-.6-6.3 0-6.3 0-7-.9-.6-.7-.7-1.2-.6-3 .1-1.4.6-2.9 1.3-4.5.7-1.4 2-3.3 3.4-4.7 1.3-1.4 2.9-2.7 4.2-3.4 1.2-.5 3.2-1.2 4.5-1.5 1.8-.4 2.7-.4 3.2-.2.3.2.7.7.7 1v1.6c0 .6-.3 1.6-.6 2.3l-.4 1.3v-1.2a5 5 0 0 0-.5-1.8c-.2-.5-.7-.7-1.6-.7-.8 0-2 .3-2.8.7-.8.4-2.2 1.3-3.1 2.2-1 .8-2 2-2.4 2.8-.3.7-.6 1.7-.6 2.1 0 .5.2 1.2.5 1.6.3.4 1 1 1.5 1.1.5.2 2.8.6 5.1.8 2.9.2 4.7.6 5.6 1a5 5 0 0 1 1.9 1.8c.3.6.5 2 .5 3.3a18 18 0 0 1-.5 4.1 17 17 0 0 1-3.4 6.2c-.7.7-1.3 1.2-1.5 1.2-.2 0-.2-.8 0-2zm7 .3c-.3-.1-1-.5-1.4-1-.4-.3-.7-.8-.6-1h.9c.4.1 1-.1 1.4-.6.7-.7.7-1 .7-11.6 0-6.3.2-11.3.4-11.8.1-.5.5-1 .8-1.2h1.4a7 7 0 0 1 2.2 1.4 22.3 22.3 0 0 1 4.5 5.8c.5 1 .6 2.4.6 8.7 0 4.7-.2 8-.4 8.7-.2.7-.7 1.5-1 1.9-.3.3-1 .6-1.7.6s-1.5-.3-2-.8-1-1.2-1-1.6c-.3-.8-.3-.8 1-.6 1 .2 1.4 0 1.9-.4.4-.3.8-1.4 1-2.3a38.9 38.9 0 0 0 0-11.4c-.2-.8-.5-1.6-.8-1.7l-.6-.3c-.2 0-.3 2.8-.4 6.1v6h-1c-.4 0-1-.3-1.3-.7-.5-.7-.5-.8.2-.8.8 0 .8-.1.8-5.4 0-3.4-.2-5.8-.4-6.4-.2-.5-.6-1-.7-1h-.8c-.3 0-.4 2-.4 9.7 0 9.3 0 9.8-.7 10.7-.5.6-1 1-1.5 1.1l-1.2-.1zm13.7-.4c-.4-.4-.5-2.4-.5-9.6 0-8.4 0-9.1.7-10.6.4-.9 1.4-2.2 2.1-3 .8-.9 2-2 2.8-2.6a5 5 0 0 1 2.1-1.1c.5 0 1 .4 1.4 1 .5 1 .6 2.3.6 11.2 0 7.6.1 10.4.4 11 .4.7.8 1 1.5 1 .6 0 1.4-.2 1.7-.4.4-.1.6 0 .6.2s-.6 1-1.3 1.8c-1 1-1.5 1.4-2.4 1.4-.7 0-1.5-.3-2-.7-.3-.4-.7-1.3-.8-2-.2-.8-.2-5.3-.1-10.1.2-8.3.2-8.8-.4-8.8-.4 0-.8.5-1.1 1.2-.3.6-.5 3.5-.6 6.3-.2 4.7-.1 5.2.4 5.2.3 0 .5.2.5.4s-.4.6-.9 1c-.7.6-1 .7-1.3.4-.3-.2-.4-2.3-.3-6 .1-4.7 0-5.6-.4-5.6-.2 0-.7.4-.9 1a39.8 39.8 0 0 0-1 11.5 6 6 0 0 0 .8 2.5c.3.3 1 .5 1.3.5.5 0 1.2-.3 1.6-.6l1-.4c.1.1 0 .7-.3 1.4l-1.4 2.2c-.7.6-1.3 1-2.1 1-.7 0-1.5-.3-1.7-.7zm26.8-1c-.8-.8-1.2-1.6-1.6-3.1-.3-1.3-.5-4-.5-6.5 0-4.3 0-4.4.6-3.8.4.3 1 .6 1.4.6.4 0 1-.3 1.3-.6.3-.3.6-1 .6-1.6 0-.6-.4-1.7-.8-2.5s-1.1-2-1.6-2.5-1.3-1-1.8-1-.9.3-1.1.8c-.2.5-.5 4.7-.6 9.5-.3 7.4-.4 8.8-1 9.6-.3.6-1 1.1-1.5 1.3-.4.2-2.1.4-3.7.3-2.9 0-2.9 0-2-.6l2-1.6a15.5 15.5 0 0 0 4-6.8 70.2 70.2 0 0 0 .5-15.3 34 34 0 0 0-.4-2.9c-.1-.6 0-1 .1-1l3 1.5c1.3.8 3.1 2.2 4 3.2.9 1 2.2 3 2.9 4.5a9 9 0 0 1 1.3 5.4c0 2.3 0 2.8-.8 3.6-.5.5-1.3 1-1.9 1-.7.2-1.3 0-2-.5-1-.6-1.1-.6-1.3-.2v1.9c.2.7.5 1.8.8 2.3.3.5.9 1 1.4 1.2.5.1 1.3 0 1.8-.2.4-.2 1.1-1 1.5-1.9l.7-1.5v1.6c0 1-.2 2.5-.5 3.5s-.9 2.2-1.3 2.5c-.4.4-1 .7-1.5.7s-1.4-.4-2-1zm-15.2-4.4c-.7-.7-.7-.8-.5-9.8.2-6.8.2-9.4-.1-10.4a5 5 0 0 0-1.4-2c-.6-.5-.7-.7-.4-.9l2-.5c1-.2 2.7-.4 3.9-.4 1.7 0 2.3.2 3 .8.6.5 1 1.3 1.2 2.1a3 3 0 0 1-.4 2.3c-.3.5-1 1-1.5 1.2-.5.2-1.2.3-1.6.1-.3 0-.6-.3-.6-.5s.1-.3.3-.2h.9c.3-.1.5-.6.5-1.4 0-1-.2-1.3-.9-1.6-.6-.3-1-.3-1.5 0-.3.1-.8.8-1.2 1.5-.3.7-.6 1.8-.6 2.6s.3 2 .7 2.5c.5.9 1 1.2 2.1 1.3.8.1 2 0 2.6-.1l1.2-.2c.1.1-.2.7-.6 1.4-.5.7-1.3 1.5-1.9 1.8-.6.4-1.4.6-2.2.4-1-.1-1.2 0-1.3.6l-.4 2 .1 2c.2.4.6.8 1 1 .3.1 1 0 1.7-.2a6 6 0 0 0 2.3-2c.6-.8 1.2-1.4 1.3-1.4a14.4 14.4 0 0 1-1.3 5.5 7 7 0 0 1-2 2 8 8 0 0 1-2.3 1c-1 .3-1.4.1-2-.5zM97 126.6a7.7 7.7 0 0 0-3.7-.8c-1.6 0-2.4-.1-3-.6-.6-.5-.8-1-.8-3 0-1.8-.2-2.2-.7-2.3-.3 0-.6-.2-.6-.4l1.4-.9c.8-.3 1.6-.5 2-.4.4.2.5.5.3 2-.2 1.6-.1 2 .5 2.8.5.6 1 .8 2 .8.7 0 1.4-.2 1.7-.4.3-.3.6-1.7.7-4.2.2-2 .4-4 .6-4.4.2-.4.8-.6 1.3-.6s1.2.1 1.5.3c.4.3.3.5-.4 1-.8.7-.8 1-1 6.3l-.2 5.6z" style="fill:url(#a);stroke-width:.352778" transform="translate(-71.7 -108.1)"/></svg>