<svg xmlns="http://www.w3.org/2000/svg" xml:space="preserve" width="207.9" height="189" viewBox="0 0 55 50"><defs><radialGradient id="a" cx="50%" cy="50%" r="50%" fx="50%" fy="50%"><stop offset="0%" stop-color="#fbde02"/><stop offset="100%" stop-color="#b2180a"/></radialGradient></defs><path d="M100.2 157.7c-.1-2.4.7-5.2-1.3-7-1.6-1.2-3.9 4-3.1.7.4-2.3 3-4.6 5.2-2.7 2.1 1.8 1.1 4.8 1.6 7.2-.2 3.6 4 .6 4.8-1 1-1.8 1.9-4.8.1-6.3-2.7-1.5-2.9 4-.1 2.1-.4 3.5-5 .6-3.3-1.9.8-2.9 5.7-3.5 6.4-.2 1.3 2.9-.1 6.3-2 8.6a23.2 23.2 0 0 1-7.7 5.2c-1.4 0-.3-3.8-.6-4.7zm-6.7 1.8a52.4 52.4 0 0 1-14.2-13.2c-.9-2.1 2.7 2.8 2.4-.4a45 45 0 0 0-.1-11.5c-.2-1.5-1.7-2-2.9-2.6 1.8.1 3.8-.4 5.5.5 1 .4.5 1.6.6 2.4 0 4.3-.2 8.6.4 12.8 1 3.7 3.7 7 7.3 8.3 2.6 1 4.3-1.2 5.6-3 .8 2.2.5 4.8.6 7.1-.4 3.1-3.8.4-5.2-.4zm18-4.1c1.5-2.8 1.7-6.6-.4-9.2-1-1.7-3.7-4.6-1-6 3.1-.8 6.4-.3 9.6-.2 2-.3 4.8 1 2.7 3.2-.4 1.2-1.8 2.5-1.5.3-1-2.7-4.2-2.3-6.4-2.2-2.2-.2-3.2 2.4-.6 2.8 1.2.4 5-1 2.2 1-2 .6-3 3.8 0 3.4 2.4-.2 2.8-2.9 3-4.8 1.6 1.8.5 4.5-1.2 6-2 2-4 4.2-6.3 6-.3.4-.2-.3 0-.3zm-21.2-3.2c-3-2.2-4.6-6.7-2.7-10.2 1.5-2.4 5-2 6.2.5 1.7 2.1 1.4 5.1 1 7.6-.5 1.8-2.8 3.4-4.5 2zm2-2.6c1.1-2 .6-5.1-1.5-6.1-2.2.6-2 3.7-.9 5.3.4.9 1.6 1.7 2.5.8zm8.5-2.6c.1-1 2.5-2 1.5-3.7 0-1.4-2-3.3.6-2.7 1.7-1 5.7-1 4.4 2-.8-1.3-4.4-1.2-2.8.6 2.3.2 1 1-.2 1.7.2 1.9-2 3.2-3.5 2.1zm-3.2-1c-1.8-1.2-2.6-4.3-.8-5.8 2.4-1 4.8 1.7 4.1 4-.1 1.7-2 2.6-3.3 1.7zm1.9-1.8c1.1-1.9-2.4-4.2-2.1-1.2 0 1 1.4 2.6 2.1 1.2zm-21-1.2c-2.6-2-3.5-5.5-3.4-8.7.4-3.3 4.4-.9 4.9 1.2.5 1.3.2 2-.8.7-2.5.2-.9 5.3 1.6 5 .8 1.9-.2 3.5-2.4 1.8zm7.3-4.2c.2-2.4 2.5-4.8 1-7.2-1.5-2-4.3-1-6.5-1.3-2 0-6 .9-5.7-2.4.3-4.4 3.5-8.3 7.3-10.2 1.7-.7 6.3-2.5 5.7.9 0 1-1 3.7-.8 1.3-.5-2.5-3.9-1-5.1.1-1.7 1.3-4 3.6-2.6 5.8 1.7 1.4 4 1 6.1 1.3 2.6 0 5.4 1.8 4.8 4.7-.2 3.2-1.4 6.6-4 8.5-.4-.4-.2-1-.2-1.5zm5.2.2c-1-.3-2.2-1.9-.3-1.5 2-1.5.7-4.4 1.1-6.5 0-3.8 0-7.7.3-11.5 1.4-2.3 4 .7 5 2a8.2 8.2 0 0 1 2.1 6.5c0 3.2.3 6.5-.5 9.6-.4 2.7-5 .6-3.9-1 2.8 1 3-2.7 3-4.6 0-2.3.4-4.8-.7-7-1.4-.7-.5 2.7-.8 3.7l-.1 5c-1.1.4-2.7-1.1-1-1.4.1-2.8.2-5.7-.3-8.5-1.4-2.4-1.5 2-1.4 3 0 3.7.3 7.3-.2 11-.3.8-1.3 1.7-2.3 1.2zm10.3-.2c-.6-2.7-.2-5.6-.4-8.4.2-2.8-.5-6.2 1.7-8.5 1.2-1.3 3.8-4.9 5.3-2.3.6 3.8.2 7.7.3 11.5.3 1.9-.7 6.4 2.5 5.4 1.8-.4-1.1 2.8-2.1 2.4-3-.2-2-4-2.2-6 0-3.3.3-6.7 0-10-2 .3-1.2 3.8-1.6 5.5-.3 1.7.3 3.6.5 4.5-2.4 2.4-1.5-2.7-1.6-4 0-1.1.2-5.8-1.1-3-.6 3.1-1 6.4-.4 9.4 0 3 4.4-1 3 1.7-.6 1.4-2.4 3-3.9 1.8zm20.1-.9c-1.8-2-1.4-5.1-1.5-7.7 0-1-.4-3.4 1.3-1.9 3-.4 1-4.4-.5-5.6-2.8-1.5-2 3.1-2.3 4.7-.2 3.1 0 6.4-.7 9.5-.8 2.2-4.2 1.5-5.9 1.3 3.1-2 5.4-5.4 5.3-9.2.2-3.9.4-7.9-.3-11.7 2.9 1 5.5 3 7 5.8 1.2 2.3 2.5 5.4.8 7.8-1.2 2.4-4.7-1.8-3.8 1.6-.2 2.7 3.6 3.7 4.2.8.6-1.8.4.5.3 1.3-.1 2-1.3 5.6-3.9 3.3zm-11.4-3.2c-1-2-.1-4.6-.3-6.8 0-3 .4-6-.3-8.8-.6-1-2.3-2 0-2 2-.3 4.6-1.1 6 .7 1.4 1.7-.6 4.8-2.6 3.5 1.4.2 1.8-3.3-.5-2.6-2.4 1.6-1.7 6.7 1.7 6 1-.2 2.7-.5 1.3 1-.9 2.5-4.7.2-4.3 3.4-.7 3.3 3.4 2.5 4.2.2 1.2-1.3.2 2.8-.5 3.7-.9 1.2-3.3 3-4.7 1.7zm-21-8.4c-2-1.2-5.9.5-5.7-2.9 0-1-.1-2.1-1-2.5 2-2 3.5-.4 2.7 1.8 1 3.2 4.8.7 3.8-2-.3-1.7.6-5.1 2.7-3.2-1.8 1.3-1 3.7-1.3 5.6l-.1 3.8-1.2-.6z" style="fill:url(#a);stroke-width:.264583" transform="translate(-72.5 -114.7)"/></svg>