<svg xmlns="http://www.w3.org/2000/svg">
	<defs>
		<style>
			:root svg:not(:target) {
				display: none;
			}
		</style>
	</defs>
	<svg id="archive" viewBox="0 0 24 24">
	    <path d="M3 4m0 2a2 2 0 0 1 2 -2h14a2 2 0 0 1 2 2v0a2 2 0 0 1 -2 2h-14a2 2 0 0 1 -2 -2z" />
		<path d="M5 8v10a2 2 0 0 0 2 2h10a2 2 0 0 0 2 -2v-10" />
		<path d="M10 12l4 0" />
	</svg>
	<svg id="device-gamepad" viewBox="0 0 24 24">
	    <path d="M2 6m0 2a2 2 0 0 1 2 -2h16a2 2 0 0 1 2 2v8a2 2 0 0 1 -2 2h-16a2 2 0 0 1 -2 -2z" />
		<path d="M6 12h4m-2 -2v4" />
		<path d="M15 11l0 .01" />
		<path d="M18 13l0 .01" />
	</svg>
	<svg id="info-square" viewBox="0 0 24 24">
	    <path d="M12 9h.01" />
		<path d="M3 5a2 2 0 0 1 2 -2h14a2 2 0 0 1 2 2v14a2 2 0 0 1 -2 2h-14a2 2 0 0 1 -2 -2v-14z" />
		<path d="M11 12h1v4h1" />
	</svg>
	<svg id="link" viewBox="0 0 24 24">
	    <path d="M9 15l6 -6" />
		<path d="M11 6l.463 -.536a5 5 0 0 1 7.071 7.072l-.534 .464" />
		<path d="M13 18l-.397 .534a5.068 5.068 0 0 1 -7.127 0a4.972 4.972 0 0 1 0 -7.071l.524 -.463" />
	</svg>
	<svg id="message" viewBox="0 0 24 24">
		<path d="M8 9h8" />
		<path d="M8 13h6" />
		<path d="M18 4a3 3 0 0 1 3 3v8a3 3 0 0 1 -3 3h-5l-5 3v-3h-2a3 3 0 0 1 -3 -3v-8a3 3 0 0 1 3 -3h12z" />
	</svg>
	<svg id="photo" viewBox="0 0 24 24">
		<path d="M15 8h.01" />
		<path d="M3 6a3 3 0 0 1 3 -3h12a3 3 0 0 1 3 3v12a3 3 0 0 1 -3 3h-12a3 3 0 0 1 -3 -3v-12z" />
		<path d="M3 16l5 -5c.928 -.893 2.072 -.893 3 0l5 5" />
		<path d="M14 14l1 -1c.928 -.893 2.072 -.893 3 0l3 3" />
	</svg>
</svg>
